<svg width="129" height="104" viewBox="0 0 129 104" fill="none" xmlns="http://www.w3.org/2000/svg">
<path d="M88.2525 79.1419C99.1783 79.1419 108.035 70.2848 108.035 59.359C108.035 48.4333 99.1783 39.5762 88.2525 39.5762C77.3267 39.5762 68.4697 48.4333 68.4697 59.359C68.4697 70.2848 77.3267 79.1419 88.2525 79.1419Z" fill="#FF7044"/>
<path d="M63.8097 39.5657C74.7355 39.5657 83.5926 30.7086 83.5926 19.7829C83.5926 8.85709 74.7355 0 63.8097 0C52.884 0 44.0269 8.85709 44.0269 19.7829C44.0269 30.7086 52.884 39.5657 63.8097 39.5657Z" fill="#FF7044"/>
<path d="M40.5968 79.1419C51.5226 79.1419 60.3797 70.2848 60.3797 59.359C60.3797 48.4333 51.5226 39.5762 40.5968 39.5762C29.6711 39.5762 20.814 48.4333 20.814 59.359C20.814 70.2848 29.6711 79.1419 40.5968 79.1419Z" fill="#FF7044"/>
<path d="M124.859 74.4434C124.859 88.5575 113.416 100.001 99.3017 100.001H29.5573C15.4432 100.001 4 88.5575 4 74.4434" stroke="#5E7699" stroke-width="8" stroke-miterlimit="10" stroke-linecap="round"/>
</svg>
